<svg viewBox="0 0 297 180" width="100%" height="100%" xmlns="http://www.w3.org/2000/svg">
 <defs>
  <style type="text/css">
   <![CDATA[
            .colibri-text, .colibri-figure{
              fill: #000000;
              fill-rule: nonzero;
            }
            .opis-text{
              fill: #ffffff;
              fill-rule: nonzero;
            }
            .opis-bg1{
             fill: #ff5000;
             fill-rule: nonzero;
            }
            .opis-bg2{
             fill: #cecece;
             fill-rule: nonzero;
            }
          ]]>
  </style>
 </defs>
 <g>
  <path stroke="null" d="m127.032401,134.216097c-3.9288,1.5527 -7.5653,2.3292 -10.9092,2.3292c-5.8212,0 -11.0355,-1.8923 -15.64343,-5.6767c-5.87158,-4.8389 -8.80737,-11.1439 -8.80737,-18.915c0,-7.8 2.93579,-14.1195 8.80737,-18.95833c4.60793,-3.78442 9.85843,-5.67669 15.75183,-5.67669c3.2065,0 6.8068,0.77636 10.8008,2.32916l0,14.31076c-1.1627,-1.3216 -2.351,-2.3219 -3.5641,-3.0008c-2.2102,-1.235 -4.5825,-1.8524 -7.1176,-1.8524c-3.2138,0 -6.0089,0.9569 -8.3851,2.8707c-3.0044,2.4267 -4.5066,5.7525 -4.5066,9.9776c0,4.1961 1.5022,7.5075 4.5066,9.9341c2.3762,1.914 5.1713,2.8709 8.3851,2.8709c2.5351,0 4.9074,-0.6175 7.1176,-1.8525c1.1915,-0.6572 2.3796,-1.6575 3.5641,-3.0009l0,14.3109z" id="svg_29" class="colibri-text"/>
  <path stroke="null" d="m170.019201,119.536897c0,4.2106 -1.4193,7.8181 -4.2574,10.8225c-3.4379,3.6617 -8.2515,5.4925 -14.441,5.4925c-6.2182,0 -11.0463,-1.8308 -14.4842,-5.4925c-2.8383,-3.0044 -4.2575,-6.6986 -4.2575,-11.0825c0,-3.9433 1.43,-7.4389 4.2901,-10.4866c3.4665,-3.6834 8.3922,-5.525 14.7766,-5.525c5.8789,0 10.5732,1.8416 14.0834,5.525c2.8599,3.0044 4.29,6.5866 4.29,10.7466zm-11.7867,0c0,-2.0222 -0.6753,-3.7375 -2.0258,-5.1458c-1.3506,-1.4083 -2.9829,-2.1125 -4.8966,-2.1125c-2.1668,0 -3.9291,0.8558 -5.2869,2.5675c-1.105,1.3722 -1.6573,2.9358 -1.6573,4.6908c0,1.7839 0.5523,3.3619 1.6573,4.7342c1.3578,1.7117 3.1201,2.5675 5.2869,2.5675c1.9355,0 3.573,-0.7042 4.9128,-2.1125c1.3398,-1.4083 2.0096,-3.1381 2.0096,-5.1892z" id="svg_28" class="colibri-text"/>
  <rect stroke="null" x="176.258901" y="84.545197" width="11.7867" height="50.6134" id="svg_27" class="colibri-text"/>
  <path stroke="null" d="m206.765401,92.507787c0,1.66107 -0.568,3.06031 -1.706,4.19791c-1.137,1.1375 -2.537,1.7062 -4.198,1.7062c-1.647,0 -3.039,-0.5741 -4.176,-1.7225c-1.138,-1.1484 -1.706,-2.54221 -1.706,-4.18161c0,-1.64673 0.568,-3.03882 1.706,-4.17627c1.137,-1.13752 2.529,-1.7063 4.176,-1.7063c1.64,0 3.033,0.56878 4.182,1.7063c1.148,1.13745 1.722,2.52954 1.722,4.17627zm0,42.65081l-11.786,0l0,-31.2001l11.786,0l0,31.2001z" id="svg_26" class="colibri-text"/>
  <path stroke="null" d="m250.445401,119.526097c0,5.1422 -1.773,9.2769 -5.319,12.4041c-2.975,2.6145 -6.37,3.9217 -10.183,3.9217c-2.362,0 -4.467,-0.4622 -6.316,-1.3867c-1.127,-0.6355 -2.174,-1.6069 -3.142,-2.9141l0,3.6075l-11.786,0l0,-50.6134l11.786,0l0,22.7826c1.17,-1.2423 2.304,-2.1342 3.402,-2.6759c1.921,-0.9244 3.972,-1.3866 6.153,-1.3866c3.749,0 7.064,1.2422 9.945,3.7266c3.64,3.12 5.46,7.2981 5.46,12.5342zm-11.786,0.0325c0,-1.7694 -0.528,-3.3439 -1.582,-4.7234c-1.307,-1.7044 -2.976,-2.5566 -5.005,-2.5566c-1.82,0 -3.373,0.7078 -4.658,2.1233c-1.286,1.4156 -1.929,3.1344 -1.929,5.1567c0,2.0222 0.643,3.7411 1.929,5.1566c1.285,1.4156 2.838,2.1234 4.658,2.1234c2.051,0 3.719,-0.8522 5.005,-2.5567c1.054,-1.4011 1.582,-2.9755 1.582,-4.7233z" id="svg_25" class="colibri-text"/>
  <path stroke="null" d="m280.259401,114.087697c-1.474,-0.7439 -2.969,-1.1158 -4.485,-1.1158c-3.46,0 -5.702,1.6178 -6.728,4.8533c-0.383,1.0545 -0.574,2.4701 -0.574,4.2467l0,13.0867l-11.787,0l0,-31.2001l11.787,0l0,5.5468c1.112,-1.8129 2.307,-3.1237 3.586,-3.9326c1.733,-1.0761 3.784,-1.6142 6.153,-1.6142c0.556,0 1.239,0.0326 2.048,0.0976l0,10.0316z" id="svg_24" class="colibri-text"/>
  <path stroke="null" d="m296.899401,92.507787c0,1.66107 -0.569,3.06031 -1.707,4.19791c-1.137,1.1375 -2.536,1.7062 -4.198,1.7062c-1.646,0 -3.038,-0.5741 -4.176,-1.7225c-1.137,-1.1484 -1.706,-2.54221 -1.706,-4.18161c0,-1.64673 0.569,-3.03882 1.706,-4.17627c1.138,-1.13752 2.53,-1.7063 4.176,-1.7063c1.64,0 3.034,0.56878 4.182,1.7063c1.148,1.13745 1.723,2.52954 1.723,4.17627zm0,42.65081l-11.787,0l0,-31.2001l11.787,0l0,31.2001z" id="svg_23" class="colibri-text"/>
  <path stroke="null" d="m144.423897,73.1761c-15.2352,0 -27.5859,-14.8026 -27.5859,-33.0626c0,-18.2597 12.3507,-33.06235 27.5859,-33.06235c6.552,0 12.5708,2.73779 17.3029,7.31085c4.5557,-3.5504 9.9927,-5.61304 15.8317,-5.61304c4.3801,0 8.534,1.16065 12.2592,3.23944c5.2997,-7.33807 13.1709,-11.9884 21.9583,-11.9884c7.009,0 13.435,2.95825 18.438,7.87903c2.841,-1.18555 5.894,-1.83002 9.073,-1.83002c15.235,0 27.586,14.80269 27.586,33.06249c0,18.2598 -12.351,33.0625 -27.586,33.0625c-6.08,0 -11.701,-2.3574 -16.26,-6.3514c-3.458,1.7345 -7.2602,2.6938 -11.251,2.6938c-4.1521,0 -8.0996,-1.0383 -11.668,-2.9078c-5.3324,7.8387 -13.4531,12.8445 -22.5495,12.8445c-7.6665,0 -14.6399,-3.5556 -19.8351,-9.366c-3.944,2.606 -8.4772,4.089 -13.2995,4.089z" id="svg_38" class="opis-bg2"/>
  <path stroke="null" d="m146.149797,71.9403c-14.6809,0 -26.58231,-14.2642 -26.58231,-31.8598c0,-17.5955 11.90141,-31.85967 26.58231,-31.85967c6.3138,0 12.1136,2.63827 16.6736,7.04487c4.3897,-3.4212 9.629,-5.40883 15.2556,-5.40883c4.2207,0 8.2236,1.11843 11.8133,3.12163c5.107,-7.07115 12.6919,-11.55229 21.1596,-11.55229c6.7541,0 12.9461,2.85058 17.7671,7.59234c2.738,-1.14239 5.68,-1.76342 8.743,-1.76342c14.681,0 26.583,14.26417 26.583,31.85977c0,17.5955 -11.902,31.8597 -26.583,31.8597c-5.859,0 -11.275,-2.2716 -15.669,-6.1204c-3.332,1.6716 -6.9954,2.5959 -10.8411,2.5959c-4.0013,0 -7.8051,-1.0005 -11.2437,-2.802c-5.1382,7.5535 -12.9637,12.3772 -21.7292,12.3772c-7.3874,0 -14.1072,-3.4263 -19.1134,-9.0253c-3.8007,2.5112 -8.1689,3.9403 -12.8158,3.9403z" id="svg_37" class="opis-bg1"/>
  <path stroke="null" d="m159.511539,33.3229l0,11.877c0,4.3572 -0.2126,7.5529 -0.6383,9.5871c-0.4256,2.0342 -1.3392,3.9336 -2.7408,5.6984c-1.4016,1.7647 -3.2015,3.0668 -5.3997,3.9062c-2.1982,0.8395 -4.7223,1.2592 -7.5724,1.2592c-3.1782,0 -5.8721,-0.3592 -8.08198,-1.0776c-2.20984,-0.7185 -3.92579,-1.8018 -5.14783,-3.2503c-1.22217,-1.4486 -2.09473,-3.2016 -2.61792,-5.2592c-0.52319,-2.0576 -0.78467,-5.144 -0.78467,-9.2591l0,-12.4158c0,-4.5056 0.47424,-8.0253 1.4231,-10.5593c0.94873,-2.5338 2.65869,-4.568 5.13024,-6.1024c2.47156,-1.5345 5.62806,-2.30162 9.46986,-2.30162c3.2329,0 6.0068,0.49392 8.3221,1.48172c2.3153,0.9878 4.1016,2.2722 5.3588,3.8535c1.2571,1.5813 2.1182,3.2113 2.5826,4.8902c0.4648,1.6789 0.6969,4.2362 0.6969,7.672zm-14.9926,-3.877c0,-2.5299 -0.0935,-4.1249 -0.281,-4.7848c-0.1874,-0.6598 -0.5857,-0.9897 -1.1947,-0.9897c-0.609,0 -1.0152,0.3299 -1.2182,0.9897c-0.2031,0.6599 -0.3044,2.2549 -0.3044,4.7848l0,22.325c0,2.3426 0.1013,3.8672 0.3044,4.574c0.203,0.7066 0.6013,1.0599 1.1947,1.0599c0.609,0 1.0113,-0.3221 1.2064,-0.9663c0.1954,-0.6442 0.2928,-2.0362 0.2928,-4.1757l0,-22.8169z" id="svg_44" class="opis-text"/>
  <path stroke="null" d="m179.962639,16.1751l-0.2108,4.3455c1.2806,-1.7101 2.6941,-2.9868 4.2401,-3.8302c1.546,-0.8433 3.2328,-1.26492 5.06,-1.26492c2.2333,0 4.164,0.61492 5.792,1.84482c1.6281,1.2298 2.6432,2.6491 3.0455,4.2577c0.4022,1.6085 0.6031,4.3338 0.6031,8.1756l0,20.4274c0,4.4042 -0.2556,7.5374 -0.7672,9.3997c-0.5114,1.8624 -1.5558,3.348 -3.1332,4.4569c-1.5773,1.1088 -3.4827,1.6632 -5.7159,1.6632c-1.7804,0 -3.432,-0.4256 -4.9546,-1.2768c-1.5226,-0.8511 -2.9126,-2.1122 -4.1698,-3.7832l0,11.057l-14.9927,0l0,-55.4727l15.2035,0zm3.5372,14.0205c0,-3.0611 -0.0915,-4.9137 -0.2751,-5.5579c-0.1835,-0.6442 -0.697,-0.9663 -1.5403,-0.9663c-0.82,0 -1.3469,0.3729 -1.5812,1.1186c-0.2344,0.7458 -0.3514,2.5476 -0.3514,5.4056l0,20.4977c0,2.9829 0.1229,4.8472 0.369,5.593c0.246,0.7457 0.7788,1.1185 1.5988,1.1185c0.7963,0 1.2923,-0.3416 1.4875,-1.0248c0.1953,-0.6833 0.2927,-2.3407 0.2927,-4.9722l0,-21.2122z" id="svg_43" class="opis-text"/>
  <path stroke="null" d="m218.732539,5.6803l0,7.49634l-14.9926,0l0,-7.49634l14.9926,0zm0,10.4948l0,48.726l-14.9926,0l0,-48.726l14.9926,0z" id="svg_42" class="opis-text"/>
  <path stroke="null" d="m254.714939,31.9174l-14.243,0l0,-2.7878c0,-2.3737 -0.1,-3.8769 -0.299,-4.5095c-0.199,-0.6324 -0.701,-0.9487 -1.505,-0.9487c-0.648,0 -1.134,0.2753 -1.458,0.8258c-0.324,0.5505 -0.486,1.3802 -0.486,2.489c0,1.4993 0.101,2.5983 0.304,3.2972c0.203,0.6989 0.816,1.4661 1.839,2.3016c1.023,0.8355 3.12,2.0498 6.29,3.6427c4.232,2.1084 7.008,4.0957 8.328,5.9619c1.32,1.8663 1.98,4.5799 1.98,8.1406c0,3.9746 -0.516,6.9751 -1.547,9.0015c-1.03,2.0262 -2.756,3.586 -5.177,4.6792c-2.42,1.0933 -5.337,1.6399 -8.749,1.6399c-3.78,0 -7.015,-0.5876 -9.705,-1.7629c-2.69,-1.1751 -4.5383,-2.7661 -5.5456,-4.773c-1.0073,-2.0068 -1.511,-5.0405 -1.511,-9.101l0,-2.3543l13.4936,0l0,3.2094c0,2.7252 0.164,4.4959 0.492,5.3118c0.328,0.816 0.976,1.224 1.944,1.224c1.046,0 1.776,-0.2635 2.19,-0.7906c0.414,-0.5271 0.621,-1.6379 0.621,-3.3323c0,-2.3349 -0.269,-3.7951 -0.808,-4.3807c-0.554,-0.5935 -3.416,-2.3387 -8.586,-5.2357c-4.333,-2.4519 -6.9747,-4.6773 -7.9235,-6.6764c-0.9487,-1.999 -1.4231,-4.3768 -1.4231,-7.1332c0,-3.8965 0.5154,-6.772 1.5461,-8.6266c1.0308,-1.8546 2.7795,-3.2855 5.2475,-4.2928c2.468,-1.0074 5.333,-1.51102 8.597,-1.51102c3.241,0 5.997,0.41182 8.27,1.23582c2.272,0.8237 4.015,1.9091 5.229,3.2561c1.215,1.347 1.951,2.5983 2.208,3.754c0.258,1.1557 0.387,2.9595 0.387,5.4114l0,2.8346z" id="svg_41" class="opis-text"/>
  <path stroke="null" d="m37.5342,179.227c0.0202,-9.645 0.0405,-19.289 0.1319,-26.479c0.0915,-7.19 0.2542,-11.926 0.7734,-17.504c0.519,-5.579 1.3947,-12 2.2702,-18.421c0.851,-4.973 1.7018,-9.946 2.6138,-14.379c0.9119,-4.4323 1.8848,-8.324 3.097,-11.7397c1.2123,-3.4156 2.664,-6.3552 4.0384,-8.9275c0.3722,-0.6965 0.7385,-1.366 1.1027,-2.0107c-0.2716,-0.0493 -0.543,-0.1003 -0.815,-0.1526c-2.489,-0.4784 -5.0187,-1.0621 -8.1321,-1.8607c-3.1134,-0.7987 -6.8105,-1.8121 -10.4429,-3.2187c-3.6323,-1.4068 -7.1997,-3.2067 -9.9442,-5.0188c-2.7445,-1.8121 -4.666,-3.6364 -6.6767,-5.5376l-6.16593,-5.8093l-5.62281,-5.27l-3.76196,-3.535c4.47546,2.0755 8.95093,4.1512 13.5886,5.87c4.6377,1.7189 9.4375,3.081 14.0427,4.4106c4.6053,1.3298 9.0158,2.6269 12.9075,3.4701c0.4783,0.1037 0.9487,0.2005 1.4131,0.2909c-0.7336,-1.9658 -1.397,-4.0144 -2.0603,-6.0631c-2.4324,-1.0702 -4.8646,-2.1405 -6.7141,-3.9584c-1.8495,-1.8178 -3.1161,-4.3833 -3.9927,-6.8984c-0.8765,-2.515 -1.363,-4.9799 -1.5819,-6.9581c-0.2189,-1.9783 -0.1703,-3.4702 -0.1216,-4.9619c-1.0296,-0.5109 -2.0594,-1.0217 -2.9634,-2.0717c-0.904,-1.0499 -1.6823,-2.639 -2.185,-4.1957c-0.5027,-1.5567 -0.7298,-3.081 -0.7601,-5.864c-0.0304,-2.7829 0.1357,-6.8247 0.302,-10.8664c3.1296,3.6971 6.2592,7.3942 8.5051,10.3131c2.2458,2.9188 3.6079,5.0592 5.2944,6.8429c1.6863,1.7837 3.697,3.2107 6.6807,5.2215c2.9837,2.0107 6.9403,4.6052 11.1564,7.7185c4.216,3.1134 8.6915,6.7458 11.9671,9.3402c3.0906,2.4481 5.1131,3.9722 6.5302,5.5531c0.7929,-0.7043 1.5625,-1.439 2.3642,-2.2594c1.3947,-1.427 2.8864,-3.1134 4.8767,-4.7511c1.9903,-1.6377 4.479,-3.2266 7.3531,-4.1002c2.874,-0.8735 6.1333,-1.0317 9.1554,-0.1824c3.0223,0.8493 5.8069,2.706 7.9599,4.4552c2.153,1.7492 3.674,3.3909 4.855,4.7955c1.182,1.4045 2.026,2.5721 6.876,7.7754c4.85,5.2032 13.707,14.4421 22.565,23.6811c-7.905,-7.1754 -15.81,-14.3507 -21.032,-18.1695c-5.221,-3.8188 -7.759,-4.2809 -9.978,-4.1795c-2.22,0.1014 -4.121,0.7664 -5.844,1.8488c-1.723,1.0824 -3.2674,2.5822 -4.6903,4.2727c-1.4228,1.6905 -2.724,3.5717 -3.9463,5.4001c-1.2221,1.8284 -2.3656,3.6039 -3.7157,5.6592l-4.4005,6.6482c-1.4939,2.258 -2.9248,4.4388 -4.6274,6.5307c-1.7027,2.0918 -3.677,4.0945 -5.4425,5.7769c-1.7655,1.6827 -3.3222,3.0447 -5.5277,4.7397c-2.2056,1.694 -5.0598,3.722 -7.9142,5.749c-2.9838,2.53 -5.9674,5.059 -8.2051,6.843c-2.2378,1.784 -3.7296,2.821 -4.8646,4.086c-1.1351,1.265 -1.9135,2.757 -2.6919,4.249l-1.7512,5.059l-1.5567,8.173l-0.7784,7.783l-1.1675,9.729l-0.7783,9.924l-1.5675,13.134z" id="svg_4" class="colibri-figure"/>
 </g>
</svg>